<svg width="1764" height="454" viewBox="0 0 1764 454" fill="none" xmlns="http://www.w3.org/2000/svg">
<path d="M631.652 160.427C643.682 160.427 653.607 161.931 661.427 164.939C669.314 167.88 675.196 172.391 679.072 178.473C682.949 184.555 684.887 192.308 684.887 201.732C684.887 209.485 683.483 215.969 680.676 221.182C677.869 226.328 674.193 230.506 669.648 233.714C665.103 236.922 660.258 239.395 655.111 241.133L695.314 307H675.463L639.572 245.845H609.094V307H592.051V160.427H631.652ZM630.649 175.165H609.094V231.408H632.353C644.317 231.408 653.106 228.968 658.72 224.089C664.402 219.21 667.242 212.025 667.242 202.534C667.242 192.576 664.235 185.524 658.219 181.381C652.271 177.237 643.081 175.165 630.649 175.165ZM757.548 195.116C766.905 195.116 774.925 197.187 781.609 201.331C788.293 205.475 793.406 211.29 796.948 218.776C800.49 226.195 802.261 234.883 802.261 244.842V255.168H726.368C726.569 268.068 729.777 277.893 735.993 284.643C742.209 291.394 750.964 294.769 762.26 294.769C769.211 294.769 775.36 294.134 780.707 292.864C786.054 291.594 791.601 289.723 797.349 287.25V301.887C791.801 304.36 786.287 306.165 780.807 307.301C775.393 308.437 768.977 309.005 761.558 309.005C750.998 309.005 741.774 306.866 733.888 302.589C726.068 298.244 719.986 291.895 715.641 283.54C711.297 275.186 709.125 264.96 709.125 252.862C709.125 241.032 711.096 230.806 715.04 222.184C719.05 213.496 724.664 206.812 731.882 202.133C739.168 197.455 747.723 195.116 757.548 195.116ZM757.347 208.75C748.458 208.75 741.373 211.658 736.093 217.472C730.813 223.287 727.672 231.408 726.669 241.834H784.817C784.75 235.284 783.714 229.536 781.709 224.59C779.771 219.578 776.797 215.701 772.786 212.961C768.776 210.154 763.63 208.75 757.347 208.75ZM870.611 195.316C883.711 195.316 893.436 198.257 899.785 204.138C906.135 210.02 909.31 219.411 909.31 232.31V307H897.179L893.971 290.759H893.169C890.094 294.769 886.886 298.144 883.544 300.884C880.202 303.558 876.326 305.596 871.915 307C867.57 308.337 862.223 309.005 855.874 309.005C849.19 309.005 843.242 307.835 838.028 305.496C832.882 303.157 828.805 299.615 825.797 294.869C822.856 290.124 821.386 284.108 821.386 276.823C821.386 265.862 825.73 257.441 834.419 251.559C843.108 245.677 856.342 242.469 874.12 241.935L893.068 241.133V234.415C893.068 224.925 891.03 218.274 886.953 214.465C882.876 210.655 877.128 208.75 869.709 208.75C863.961 208.75 858.48 209.586 853.267 211.257C848.054 212.927 843.108 214.899 838.429 217.172L833.316 204.539C838.262 202 843.943 199.828 850.36 198.023C856.776 196.218 863.527 195.316 870.611 195.316ZM892.868 252.862L876.125 253.564C862.424 254.099 852.766 256.338 847.152 260.281C841.537 264.225 838.73 269.805 838.73 277.024C838.73 283.306 840.635 287.952 844.445 290.959C848.254 293.967 853.301 295.471 859.583 295.471C869.341 295.471 877.328 292.764 883.544 287.35C889.76 281.936 892.868 273.816 892.868 262.988V252.862ZM959.313 307H942.57V151.003H959.313V307ZM1041 307H1023.85V175.466H977.736V160.427H1086.91V175.466H1041V307ZM1122.18 151.003V197.622C1122.18 200.295 1122.11 203.002 1121.98 205.743C1121.84 208.416 1121.61 210.889 1121.28 213.161H1122.38C1124.65 209.285 1127.53 206.043 1131 203.437C1134.54 200.763 1138.55 198.758 1143.03 197.421C1147.51 196.018 1152.26 195.316 1157.27 195.316C1166.09 195.316 1173.44 196.72 1179.32 199.527C1185.27 202.334 1189.72 206.678 1192.66 212.56C1195.67 218.442 1197.17 226.061 1197.17 235.418V307H1180.73V236.521C1180.73 227.364 1178.62 220.513 1174.41 215.969C1170.27 211.424 1163.88 209.151 1155.26 209.151C1147.11 209.151 1140.59 210.722 1135.71 213.863C1130.9 216.938 1127.43 221.483 1125.29 227.498C1123.21 233.513 1122.18 240.865 1122.18 249.554V307H1105.54V151.003H1122.18ZM1247.07 197.121V307H1230.43V197.121H1247.07ZM1238.95 156.016C1241.69 156.016 1244.03 156.918 1245.97 158.723C1247.97 160.461 1248.98 163.201 1248.98 166.944C1248.98 170.62 1247.97 173.36 1245.97 175.165C1244.03 176.969 1241.69 177.872 1238.95 177.872C1236.08 177.872 1233.67 176.969 1231.73 175.165C1229.86 173.36 1228.93 170.62 1228.93 166.944C1228.93 163.201 1229.86 160.461 1231.73 158.723C1233.67 156.918 1236.08 156.016 1238.95 156.016ZM1333.37 195.116C1346.4 195.116 1356.26 198.324 1362.94 204.74C1369.63 211.089 1372.97 221.315 1372.97 235.418V307H1356.53V236.521C1356.53 227.364 1354.42 220.513 1350.21 215.969C1346.07 211.424 1339.68 209.151 1331.06 209.151C1318.9 209.151 1310.34 212.593 1305.4 219.477C1300.45 226.362 1297.98 236.354 1297.98 249.454V307H1281.34V197.121H1294.77L1297.28 212.961H1298.18C1300.52 209.084 1303.49 205.843 1307.1 203.236C1310.71 200.563 1314.75 198.558 1319.23 197.221C1323.71 195.817 1328.42 195.116 1333.37 195.116ZM1436.91 356.325C1422.47 356.325 1411.34 353.619 1403.52 348.205C1395.7 342.858 1391.79 335.339 1391.79 325.647C1391.79 318.763 1393.96 312.882 1398.31 308.003C1402.72 303.123 1408.8 299.882 1416.56 298.278C1413.68 296.941 1411.21 294.936 1409.14 292.263C1407.13 289.589 1406.13 286.515 1406.13 283.039C1406.13 279.029 1407.23 275.52 1409.44 272.512C1411.71 269.438 1415.15 266.497 1419.76 263.69C1414.02 261.351 1409.34 257.407 1405.73 251.86C1402.19 246.246 1400.41 239.729 1400.41 232.31C1400.41 224.423 1402.05 217.706 1405.33 212.159C1408.6 206.545 1413.35 202.267 1419.56 199.326C1425.78 196.385 1433.3 194.915 1442.12 194.915C1444.06 194.915 1446 195.015 1447.94 195.216C1449.94 195.349 1451.84 195.583 1453.65 195.918C1455.45 196.185 1457.02 196.519 1458.36 196.92H1496.06V207.647L1475.81 210.154C1477.81 212.76 1479.48 215.902 1480.82 219.578C1482.16 223.254 1482.82 227.331 1482.82 231.809C1482.82 242.77 1479.11 251.492 1471.7 257.975C1464.28 264.392 1454.08 267.6 1441.12 267.6C1438.04 267.6 1434.9 267.332 1431.69 266.798C1428.42 268.602 1425.91 270.607 1424.17 272.813C1422.5 275.019 1421.67 277.558 1421.67 280.432C1421.67 282.571 1422.3 284.276 1423.57 285.545C1424.91 286.815 1426.81 287.751 1429.29 288.353C1431.76 288.887 1434.73 289.155 1438.21 289.155H1457.56C1469.52 289.155 1478.68 291.661 1485.03 296.674C1491.45 301.686 1494.65 309.005 1494.65 318.63C1494.65 330.794 1489.71 340.118 1479.82 346.601C1469.92 353.084 1455.62 356.325 1436.91 356.325ZM1437.41 343.292C1446.5 343.292 1454.02 342.357 1459.97 340.485C1465.98 338.681 1470.46 336.041 1473.4 332.565C1476.41 329.156 1477.91 325.079 1477.91 320.334C1477.91 315.923 1476.91 312.581 1474.9 310.308C1472.9 308.103 1469.96 306.632 1466.08 305.897C1462.2 305.095 1457.46 304.694 1451.84 304.694H1432.8C1427.85 304.694 1423.54 305.463 1419.86 307C1416.19 308.537 1413.35 310.81 1411.34 313.817C1409.4 316.825 1408.43 320.568 1408.43 325.046C1408.43 330.994 1410.94 335.506 1415.95 338.58C1420.97 341.722 1428.12 343.292 1437.41 343.292ZM1441.72 255.469C1449.67 255.469 1455.65 253.464 1459.66 249.454C1463.68 245.443 1465.68 239.595 1465.68 231.909C1465.68 223.688 1463.64 217.539 1459.56 213.462C1455.49 209.318 1449.47 207.246 1441.52 207.246C1433.9 207.246 1428.02 209.385 1423.87 213.663C1419.8 217.873 1417.76 224.056 1417.76 232.21C1417.76 239.696 1419.83 245.443 1423.97 249.454C1428.12 253.464 1434.03 255.469 1441.72 255.469ZM1533.23 151.003V232.009C1533.23 234.683 1533.13 237.958 1532.93 241.834C1532.73 245.644 1532.56 249.019 1532.43 251.96H1533.13C1534.53 250.222 1536.57 247.649 1539.24 244.24C1541.98 240.832 1544.29 238.091 1546.16 236.02L1582.65 197.121H1602.2L1557.99 244.04L1605.41 307H1585.36L1546.56 254.968L1533.23 267.199V307H1516.69V151.003H1533.23ZM1694.61 276.924C1694.61 283.941 1692.84 289.856 1689.3 294.669C1685.83 299.414 1680.81 302.99 1674.26 305.396C1667.78 307.802 1660.03 309.005 1651 309.005C1643.32 309.005 1636.67 308.404 1631.05 307.201C1625.44 305.997 1620.53 304.293 1616.32 302.088V286.749C1620.79 288.954 1626.14 290.959 1632.36 292.764C1638.57 294.568 1644.92 295.471 1651.4 295.471C1660.9 295.471 1667.78 293.933 1672.06 290.859C1676.33 287.784 1678.47 283.607 1678.47 278.327C1678.47 275.319 1677.6 272.679 1675.87 270.407C1674.2 268.068 1671.36 265.829 1667.34 263.69C1663.33 261.484 1657.79 259.078 1650.7 256.472C1643.68 253.798 1637.6 251.158 1632.46 248.551C1627.38 245.878 1623.43 242.636 1620.63 238.827C1617.89 235.017 1616.52 230.071 1616.52 223.989C1616.52 214.699 1620.26 207.581 1627.74 202.635C1635.3 197.622 1645.19 195.116 1657.42 195.116C1664.04 195.116 1670.22 195.784 1675.97 197.121C1681.78 198.391 1687.2 200.128 1692.21 202.334L1686.59 215.668C1682.05 213.73 1677.2 212.092 1672.06 210.755C1666.91 209.419 1661.66 208.75 1656.32 208.75C1648.63 208.75 1642.72 210.02 1638.57 212.56C1634.49 215.1 1632.46 218.575 1632.46 222.986C1632.46 226.395 1633.39 229.202 1635.26 231.408C1637.2 233.613 1640.28 235.685 1644.49 237.624C1648.7 239.562 1654.24 241.834 1661.13 244.441C1668.01 246.981 1673.96 249.621 1678.97 252.361C1683.99 255.035 1687.83 258.31 1690.5 262.186C1693.24 265.996 1694.61 270.908 1694.61 276.924Z" fill="white"/>
<path fill-rule="evenodd" clip-rule="evenodd" d="M310.523 68.8706C320.276 65.8696 332.215 62.4825 345.138 64.7276C357.979 66.9584 372.03 74.8033 385.848 94.7905L386.386 95.5691L387.321 95.4183C392.469 94.5877 404.906 92.9368 413.582 92.9368C424.389 92.9368 444.688 96.1075 455.777 115.676C464.09 130.347 465.579 142.039 465.082 160.897L465.057 161.859L465.921 162.283C470.654 164.608 477.273 168.046 483.07 172.786C488.876 177.532 493.704 183.46 495.109 190.722C497.934 205.316 491.902 217.976 475.592 232.31L475.193 232.66L475.104 233.183C474.629 235.953 473.301 240.581 470.874 245.287C468.444 249.996 464.973 254.666 460.273 257.673C448.18 265.413 436.575 266.929 416.731 264.944C408.435 264.115 399.794 262.679 391.366 261.279L391.366 261.279C389.696 261.002 388.035 260.726 386.387 260.456C376.463 258.834 366.972 257.437 359.082 257.437C343.3 257.437 320.901 263.521 306.06 277.339C298.593 284.291 293.361 293.51 289.935 302.265C286.51 311.018 284.843 319.429 284.584 324.865C284.183 333.27 283.582 349.064 283.582 358.937C283.582 368.197 286.152 376.907 291.01 383.341C295.893 389.807 303.071 393.936 312.082 393.936C327.085 393.936 380.091 393.77 408.1 393.437L408.064 390.437C380.073 390.77 327.079 390.936 312.082 390.936C304.093 390.936 297.771 387.316 293.404 381.533C289.012 375.717 286.582 367.677 286.582 358.937C286.582 349.14 287.18 333.404 287.58 325.008C287.821 319.945 289.404 311.856 292.729 303.358C296.053 294.864 301.071 286.083 308.104 279.535C322.263 266.353 343.864 260.437 359.082 260.437C366.692 260.437 375.951 261.79 385.902 263.417C387.534 263.684 389.184 263.958 390.847 264.234C399.275 265.634 408.03 267.089 416.433 267.929C436.589 269.945 448.984 268.46 461.891 260.2C467.191 256.808 470.97 251.644 473.54 246.662C475.97 241.952 477.374 237.3 477.965 234.217C494.37 219.682 501.145 206.118 498.055 190.152C496.46 181.914 491.038 175.424 484.969 170.463C479.248 165.786 472.816 162.356 468.105 160.016C468.532 141.42 466.928 129.269 458.387 114.197C446.494 93.2096 424.775 89.9368 413.582 89.9368C405.154 89.9368 393.422 91.438 387.776 92.3096C373.761 72.3594 359.26 64.1359 345.651 61.7718C331.949 59.3915 319.388 63.0041 309.641 66.0032C301.578 68.484 293.697 73.6171 287.166 78.8819C281.156 83.7263 276.207 88.7492 273.208 92.0959C272.646 91.8093 271.945 91.4343 271.112 90.9855L270.814 90.8251L270.814 90.8251C269.495 90.1146 267.924 89.268 266.21 88.3993C262.537 86.5373 258.114 84.5241 253.946 83.4822C242.285 80.5679 223.619 78.4307 206.677 91.2404C190.548 103.436 183.108 124.029 180.444 134.305C177.277 134.075 172.362 134.405 166.786 135.886C160.304 137.608 152.834 140.911 146.094 146.808C139.812 152.305 135.942 159.968 133.829 167.27C131.972 173.685 131.429 179.966 131.871 184.467C109.161 185.278 93.572 202.179 84.235 221.278C78.6273 232.748 75.4769 247.69 73.7824 260.87C72.086 274.064 71.829 285.657 72.0847 290.515C72.3562 295.674 74.5466 300.202 78.7057 303.543C82.8307 306.857 88.7847 308.92 96.4828 309.433C104.338 309.957 111.232 307.6 116.239 305.16C118.748 303.938 120.801 302.686 122.276 301.75C122.603 301.543 122.891 301.358 123.147 301.194L123.148 301.193C123.486 300.975 123.77 300.793 124.017 300.641L124.021 300.638C124.247 300.793 124.53 300.993 124.87 301.237C125.277 301.529 125.751 301.874 126.289 302.265L126.555 302.458C127.202 302.928 127.932 303.458 128.731 304.031C131.923 306.321 136.228 309.318 140.874 312.099C145.507 314.872 150.546 317.473 155.204 318.931C159.782 320.364 164.402 320.824 167.862 318.718C171.337 316.603 173.951 313.193 175.927 309.317C177.907 305.433 179.297 300.98 180.275 296.637C182.231 287.956 182.583 279.508 182.583 276.436C182.583 274.518 183.355 273.355 184.272 272.618C185.235 271.844 186.417 271.503 187.178 271.434C187.29 271.428 187.379 271.412 187.433 271.402C187.496 271.39 187.564 271.374 187.591 271.368C187.659 271.352 187.74 271.334 187.87 271.312C188.138 271.267 188.654 271.203 189.632 271.158C190.778 271.106 192.525 271.084 195.206 271.147L195.235 271.429C195.897 271.361 196.555 271.286 197.209 271.205C198.725 271.256 200.478 271.33 202.505 271.434C211.593 271.901 217.323 277.224 220.843 283.37C224.393 289.568 225.582 296.433 225.582 299.437C225.582 304.032 225.75 310.555 225.949 318.227L225.949 318.228C225.992 319.92 226.037 321.667 226.082 323.462C226.332 333.414 226.582 344.857 226.582 356.437C226.582 367.374 220.113 375.726 212.019 381.544C203.938 387.352 194.484 390.443 189.016 390.936H89.0826V393.936H189.082H189.147L189.212 393.931C195.254 393.405 205.258 390.098 213.77 383.98C222.301 377.848 229.582 368.7 229.582 356.437C229.582 344.817 229.332 333.343 229.081 323.387C229.036 321.582 228.991 319.829 228.947 318.134L228.947 318.133C228.749 310.461 228.582 303.989 228.582 299.437C228.582 295.94 227.271 288.556 223.446 281.879C220.271 276.335 215.287 271.167 207.809 269.219C221.687 265.7 232.674 259.074 238.759 251.366C242.074 247.167 243.041 241.292 243.019 235.893C243.002 231.459 242.317 227.157 241.549 223.985C246.895 224.064 256.144 223.842 261.946 222.392C270.442 220.268 282.495 210.831 284.073 196.097C285.226 185.335 283.756 174.673 282.73 169.503C290.651 162.726 295.809 157.3 299.785 151.957C303.871 146.468 306.67 141.114 309.924 134.608C313.29 127.876 313.902 122.49 312.591 117.726C311.299 113.036 308.197 109.184 304.679 105.413C303.115 103.738 300.854 102.219 298.317 100.864C295.762 99.4989 292.839 98.2535 289.879 97.1555C285.105 95.3849 280.168 93.9733 276.396 93.0498C279.352 89.8484 283.785 85.4605 289.048 81.2175C295.45 76.057 302.986 71.1898 310.523 68.8706ZM274.127 95.5952L273.995 95.7464L272.991 95.3162C272.214 94.9833 271.043 94.3557 269.69 93.6269L269.395 93.4684L269.395 93.4683C268.073 92.7562 266.533 91.9262 264.854 91.0752C261.227 89.2371 257.049 87.3502 253.218 86.3927C241.879 83.5587 224.345 81.643 208.487 93.6334C192.517 105.708 185.353 126.707 183.04 136.289L182.717 137.626L181.357 137.42C178.855 137.041 173.709 137.151 167.556 138.786C161.43 140.413 154.399 143.528 148.07 149.066C142.352 154.068 138.722 161.155 136.71 168.104C134.694 175.068 134.358 181.706 135.059 185.676L135.37 187.437H133.582C111.643 187.437 96.2984 203.433 86.9302 222.595C81.5379 233.625 78.4383 248.183 76.7579 261.253C75.0793 274.309 74.8363 285.716 75.0805 290.358C75.309 294.699 77.1187 298.421 80.5845 301.205C84.0845 304.016 89.3806 305.953 96.6824 306.44C103.827 306.916 110.183 304.774 114.925 302.463C117.291 301.311 119.238 300.125 120.669 299.217C120.956 299.035 121.231 298.858 121.487 298.694C121.853 298.459 122.178 298.25 122.44 298.088C122.667 297.948 122.891 297.815 123.09 297.713C123.19 297.663 123.311 297.605 123.442 297.557C123.545 297.519 123.784 297.437 124.082 297.437C124.402 297.437 124.652 297.54 124.715 297.566L124.719 297.567C124.823 297.61 124.915 297.658 124.983 297.695C125.123 297.772 125.276 297.869 125.428 297.969C125.737 298.172 126.143 298.458 126.62 298.8C127.031 299.095 127.509 299.443 128.042 299.83L128.043 299.831L128.318 300.03C128.964 300.5 129.689 301.025 130.48 301.593C133.647 303.865 137.874 306.806 142.415 309.525C146.97 312.251 151.774 314.714 156.1 316.068C160.507 317.447 164.012 317.55 166.302 316.156C169.133 314.433 171.422 311.548 173.254 307.954C175.082 304.369 176.403 300.176 177.348 295.978C179.24 287.579 179.583 279.365 179.583 276.436C179.583 273.555 180.81 271.551 182.393 270.28C183.899 269.07 185.674 268.557 186.913 268.446L186.918 268.444C187.013 268.423 187.16 268.389 187.376 268.353C187.798 268.283 188.439 268.209 189.496 268.161C190.976 268.094 193.314 268.076 197.071 268.199C215.28 265.881 229.499 258.255 236.405 249.507C239.09 246.106 240.04 241.066 240.019 235.905C239.999 230.789 239.026 225.832 238.144 222.864L237.549 220.863L239.636 220.938C244.3 221.104 255.044 221.025 261.218 219.482C268.722 217.606 279.669 209.042 281.091 195.777C282.267 184.793 280.597 173.831 279.615 169.251L279.427 168.374L280.112 167.793C288.305 160.841 293.467 155.423 297.379 150.166C301.293 144.906 303.994 139.759 307.24 133.266C310.374 126.998 310.762 122.384 309.698 118.523C308.615 114.588 305.967 111.19 302.485 107.46C301.249 106.135 299.319 104.8 296.903 103.51C294.506 102.229 291.717 101.037 288.835 99.9683C283.493 97.9866 277.921 96.4615 274.127 95.5952Z" fill="white"/>
<path d="M88.2512 393.214C92.7655 393.214 185.714 393.352 188.467 393.352C200.462 393.352 227.059 380.841 227.059 357.25C227.059 356.444 227.221 310.552 226.258 300.358C225.742 297.267 223.162 270.207 200.817 270.207C198.914 270.207 188.564 270.903 185.114 271.327C183.05 271.327 181.006 272.628 180.084 277.529C179.172 282.358 176.859 319.189 162.8 319.189C148.226 319.189 131.459 307.71 123.204 299.714C102.052 312.353 72 313.514 72 287.59C72.9028 192.017 120.883 184.923 132.749 185.568C128.621 177.571 134.167 136.428 180.341 135.267C206.911 53.3657 266.192 87.2869 273.593 93.3489C277.699 93.2158 312.242 101.172 312.242 122.067C312.242 124.51 305.793 149.41 280.771 168.067C288.812 210.719 271.59 222.972 239.603 222.714C242.352 232.774 249.474 262.181 195.569 270.472" stroke="white" stroke-width="15" stroke-miterlimit="10" stroke-linecap="round" stroke-linejoin="round"/>
<path d="M273.531 92.8337C275.717 89.307 337.178 22.6212 388.511 93.4343C397.129 90.7298 469.167 72.709 467.704 160.06C472.258 162.308 528.968 185.823 477.635 233.931C461.9 296.873 382.192 251.086 348.915 260.372C342.555 260.372 284.684 267.123 284.684 340.725C284.684 345.239 279.827 393.348 312.241 393.348C325.054 393.348 401.796 393.393 408.116 393.393" stroke="white" stroke-width="15" stroke-miterlimit="10" stroke-linecap="round" stroke-linejoin="round"/>
</svg>
